<svg width="10" height="14" viewBox="0 0 10 14" fill="none" xmlns="http://www.w3.org/2000/svg">
<path d="M4.80499 13.0389C4.67107 13.0389 4.53716 12.9896 4.43144 12.8839L0.153295 8.60571C-0.0510984 8.40132 -0.0510984 8.06301 0.153295 7.85862C0.357689 7.65422 0.695996 7.65422 0.900389 7.85862L4.80499 11.7632L8.70961 7.85862C8.914 7.65422 9.25231 7.65422 9.4567 7.85862C9.6611 8.06301 9.6611 8.40132 9.4567 8.60571L5.17853 12.8839C5.07281 12.9896 4.9389 13.0389 4.80499 13.0389Z" fill="#292D32"/>
<path d="M4.80561 12.9191C4.51664 12.9191 4.27701 12.6795 4.27701 12.3905V0.528604C4.27701 0.239634 4.51664 0 4.80561 0C5.09458 0 5.33422 0.239634 5.33422 0.528604V12.3905C5.33422 12.6795 5.09458 12.9191 4.80561 12.9191Z" fill="#292D32"/>
</svg>
