<svg width="12" height="12" viewBox="0 0 12 12" fill="none" xmlns="http://www.w3.org/2000/svg">
<path d="M7.727 6.2372V8.2553C7.727 9.93705 7.0543 10.6098 5.37255 10.6098H3.35445C1.6727 10.6098 1 9.93705 1 8.2553V6.2372C1 4.55545 1.6727 3.88275 3.35445 3.88275H5.37255C7.0543 3.88275 7.727 4.55545 7.727 6.2372Z" stroke="#292D32" stroke-width="1.37405" stroke-linecap="round" stroke-linejoin="round"/>
<path d="M10.6102 3.35445V5.37255C10.6102 7.0543 9.93751 7.727 8.25576 7.727H7.72721V6.23745C7.72721 4.5557 7.05451 3.883 5.37276 3.883H3.88321V3.35445C3.88321 1.6727 4.55591 1 6.23766 1H8.25576C9.93751 1 10.6102 1.6727 10.6102 3.35445Z" stroke="#292D32" stroke-width="1.37405" stroke-linecap="round" stroke-linejoin="round"/>
</svg>
