<svg width="9" height="10" viewBox="0 0 9 10" fill="none" xmlns="http://www.w3.org/2000/svg">
<path d="M3.56625 0C2.91244 0 2.3775 0.534938 2.3775 1.18875H1.18875C0.534938 1.18875 0 1.72369 0 2.3775H8.32125C8.32125 1.72369 7.78631 1.18875 7.1325 1.18875H5.94375C5.94375 0.534938 5.40881 0 4.755 0H3.56625ZM1.18875 3.56625V9.28414C1.18875 9.4149 1.28385 9.51 1.41461 9.51H6.91853C7.04929 9.51 7.14439 9.4149 7.14439 9.28414V3.56625H5.95564V7.72688C5.95564 8.05972 5.69411 8.32125 5.36126 8.32125C5.02841 8.32125 4.76689 8.05972 4.76689 7.72688V3.56625H3.57814V7.72688C3.57814 8.05972 3.31661 8.32125 2.98376 8.32125C2.65091 8.32125 2.38939 8.05972 2.38939 7.72688V3.56625H1.20064H1.18875Z" fill="#242529"/>
</svg>
