<svg width="12" height="12" viewBox="0 0 12 12" fill="none" xmlns="http://www.w3.org/2000/svg">
<path d="M8.81955 0C8.54887 0.0150856 8.2782 0.0452567 8.02256 0.13577C7.61654 0.286626 7.22556 0.51291 6.89474 0.844793C6.79955 0.905327 6.71914 0.986553 6.65947 1.08246C6.59979 1.17838 6.56237 1.28652 6.54998 1.3989C6.53758 1.51127 6.55053 1.62501 6.58786 1.73169C6.62519 1.83837 6.68595 1.93526 6.76564 2.01521C6.84533 2.09516 6.94192 2.15611 7.04826 2.19356C7.1546 2.23101 7.26797 2.24399 7.37999 2.23156C7.49201 2.21912 7.59981 2.18158 7.69542 2.12172C7.79102 2.06185 7.87199 1.98119 7.93233 1.8857C8.09775 1.71976 8.29323 1.62924 8.50376 1.55382C9.03008 1.37279 9.67669 1.44822 10.0977 1.8857C10.6842 2.47404 10.6842 3.4546 10.0977 4.05802L7.84211 6.32086C7.18045 6.98462 6.6391 7.04497 6.24812 7.02988C5.85714 7.0148 5.63158 6.83377 5.63158 6.83377C5.54469 6.78424 5.44893 6.75237 5.34976 6.73997C5.25059 6.72757 5.14996 6.73489 5.05361 6.7615C4.95726 6.78812 4.86708 6.83351 4.78822 6.89509C4.70935 6.95667 4.64335 7.03323 4.59399 7.1204C4.54462 7.20756 4.51284 7.30363 4.50048 7.40312C4.48812 7.5026 4.49542 7.60355 4.52195 7.70021C4.54848 7.79687 4.59373 7.88734 4.65511 7.96645C4.71649 8.04556 4.79281 8.11177 4.8797 8.1613C4.8797 8.1613 5.39098 8.49318 6.14286 8.53844C6.89474 8.5837 7.94737 8.29707 8.86466 7.36176L11.1203 5.09893C12.2932 3.92225 12.2932 2.02147 11.1203 0.859878C10.6992 0.437482 10.203 0.181027 9.66166 0.0603423C9.39098 0 9.09023 0 8.81955 0.0150856V0ZM5.81203 3.48477C5.06015 3.4546 4.02256 3.71105 3.13534 4.61619L0.879699 6.87903C-0.293233 8.0557 -0.293233 9.95649 0.879699 11.1181C1.7218 11.9629 2.92481 12.2042 3.97744 11.8271C4.38346 11.6762 4.77444 11.45 5.10526 11.1181C5.20045 11.0575 5.28086 10.9763 5.34053 10.8804C5.40021 10.7845 5.43763 10.6763 5.45002 10.564C5.46242 10.4516 5.44947 10.3379 5.41214 10.2312C5.37481 10.1245 5.31406 10.0276 5.23436 9.94766C5.15467 9.86771 5.05808 9.80676 4.95174 9.76931C4.8454 9.73186 4.73203 9.71888 4.62001 9.73131C4.50799 9.74375 4.40019 9.78128 4.30459 9.84115C4.20898 9.90102 4.12801 9.98168 4.06767 10.0772C3.90226 10.2431 3.70677 10.3336 3.49624 10.4091C2.96992 10.5901 2.32331 10.5147 1.90226 10.0772C1.31579 9.48883 1.31579 8.50827 1.90226 7.90485L4.15789 5.64201C4.7594 5.03859 5.28571 4.96316 5.70677 4.97824C6.12782 4.99333 6.41353 5.11401 6.41353 5.11401C6.50164 5.1803 6.60318 5.22636 6.71099 5.24895C6.81879 5.27153 6.93023 5.27007 7.03741 5.24469C7.14459 5.21931 7.24491 5.17061 7.33127 5.10205C7.41762 5.03349 7.48791 4.94673 7.53716 4.84791C7.58642 4.7491 7.61343 4.64063 7.61629 4.53019C7.61915 4.41974 7.59779 4.31002 7.55372 4.20877C7.50966 4.10752 7.44395 4.01721 7.36126 3.94424C7.27857 3.87127 7.18091 3.81742 7.07519 3.78648C7.07519 3.78648 6.56391 3.48477 5.81203 3.4546V3.48477Z" fill="black"/>
</svg>
