<svg width="10" height="12" viewBox="0 0 10 12" fill="none" xmlns="http://www.w3.org/2000/svg">
<path d="M2.11141 0.40365L2.39761 0.689851L1.82521 0.11745L2.11141 0.40365Z" fill="#292D32" stroke="black" stroke-width="2"/>
<mask id="path-2-inside-1_80_234" fill="white">
<path fill-rule="evenodd" clip-rule="evenodd" d="M0.118806 1.82385C0.0810056 1.86165 0.0540055 1.90485 0.0324054 1.95345C0.0108054 2.00205 0 2.05605 0 2.11005C0 2.16405 0.0108054 2.21805 0.0324054 2.26665C0.0540055 2.31525 0.0810056 2.35845 0.118806 2.39625L1.82521 4.10266C1.90621 4.18366 2.0088 4.22146 2.1114 4.22146C2.214 4.22146 2.3166 4.18366 2.39761 4.10266C2.55421 3.94606 2.55421 3.68686 2.39761 3.53026L1.3824 2.51505H7.8786C8.5482 2.51505 9.0936 3.06045 9.0936 3.73006V5.52285C9.0936 5.74425 9.2772 5.92785 9.4986 5.92785C9.72001 5.92785 9.90361 5.74425 9.90361 5.52285V3.73006C9.90361 2.61225 8.9964 1.70505 7.8786 1.70505H1.3824L2.39761 0.689851C2.55421 0.533251 2.55421 0.27405 2.39761 0.11745C2.24101 -0.0391501 1.98181 -0.0391501 1.82521 0.11745L0.118806 1.82385ZM1.82521 0.11745L2.11141 0.40365ZM2.11141 0.40365L2.39761 0.689851Z"/>
</mask>
<path fill-rule="evenodd" clip-rule="evenodd" d="M0.118806 1.82385C0.0810056 1.86165 0.0540055 1.90485 0.0324054 1.95345C0.0108054 2.00205 0 2.05605 0 2.11005C0 2.16405 0.0108054 2.21805 0.0324054 2.26665C0.0540055 2.31525 0.0810056 2.35845 0.118806 2.39625L1.82521 4.10266C1.90621 4.18366 2.0088 4.22146 2.1114 4.22146C2.214 4.22146 2.3166 4.18366 2.39761 4.10266C2.55421 3.94606 2.55421 3.68686 2.39761 3.53026L1.3824 2.51505H7.8786C8.5482 2.51505 9.0936 3.06045 9.0936 3.73006V5.52285C9.0936 5.74425 9.2772 5.92785 9.4986 5.92785C9.72001 5.92785 9.90361 5.74425 9.90361 5.52285V3.73006C9.90361 2.61225 8.9964 1.70505 7.8786 1.70505H1.3824L2.39761 0.689851C2.55421 0.533251 2.55421 0.27405 2.39761 0.11745C2.24101 -0.0391501 1.98181 -0.0391501 1.82521 0.11745L0.118806 1.82385ZM1.82521 0.11745L2.11141 0.40365ZM2.11141 0.40365L2.39761 0.689851Z" fill="black"/>
<path d="M0.118806 1.82385L-1.29541 0.409639L-1.29541 0.40964L0.118806 1.82385ZM0.118806 2.39625L-1.29541 3.81047L-1.29541 3.81047L0.118806 2.39625ZM1.82521 4.10266L3.23942 2.68844L3.23942 2.68844L1.82521 4.10266ZM2.39761 4.10266L3.81178 5.51692L3.81182 5.51687L2.39761 4.10266ZM2.39761 3.53026L3.81182 2.11604L3.81182 2.11604L2.39761 3.53026ZM1.3824 2.51505V0.515054H-3.44604L-0.0318075 3.92927L1.3824 2.51505ZM1.3824 1.70505L-0.0318075 0.290835L-3.44604 3.70505L1.3824 3.70505V1.70505ZM2.39761 0.689851L3.81182 2.10407L3.81182 2.10406L2.39761 0.689851ZM1.82521 0.11745L0.410995 -1.29676L0.410995 -1.29676L1.82521 0.11745ZM2.11141 0.40365L3.52563 -1.01056L3.52562 -1.01057L2.11141 0.40365ZM-1.29541 0.40964C-1.54487 0.6591 -1.69843 0.923396 -1.79522 1.14118L1.86003 2.76573C1.80644 2.88631 1.70688 3.06421 1.53302 3.23807L-1.29541 0.40964ZM-1.79522 1.14118C-1.93782 1.46202 -2 1.79489 -2 2.11005H2C2 2.31722 1.95943 2.54208 1.86003 2.76573L-1.79522 1.14118ZM-2 2.11005C-2 2.42522 -1.93782 2.75809 -1.79522 3.07893L1.86003 1.45438C1.95943 1.67802 2 1.90289 2 2.11005H-2ZM-1.79522 3.07893C-1.69843 3.29671 -1.54487 3.56101 -1.29541 3.81047L1.53302 0.982041C1.70688 1.1559 1.80644 1.3338 1.86003 1.45438L-1.79522 3.07893ZM0.410993 5.51687C0.886815 5.99269 1.50697 6.22146 2.1114 6.22146V2.22146C2.51064 2.22146 2.9256 2.37462 3.23942 2.68844L0.410993 5.51687ZM2.1114 6.22146C2.71582 6.22146 3.33596 5.9927 3.81178 5.51692L0.983441 2.6884C1.29725 2.37461 1.71218 2.22146 2.1114 2.22146V6.22146ZM3.81182 5.51687C4.74947 4.57922 4.74947 3.05369 3.81182 2.11604L0.983396 4.94447C0.358947 4.32002 0.358947 3.31289 0.983396 2.68844L3.81182 5.51687ZM7.8786 4.51505C7.44363 4.51505 7.0936 4.16503 7.0936 3.73006H11.0936C11.0936 1.95588 9.65277 0.515054 7.8786 0.515054V4.51505ZM7.0936 5.52285C7.0936 6.84882 8.17264 7.92785 9.4986 7.92785V3.92785C10.3818 3.92785 11.0936 4.63968 11.0936 5.52285H7.0936ZM9.4986 7.92785C10.8246 7.92785 11.9036 6.84882 11.9036 5.52285H7.90361C7.90361 4.63968 8.61544 3.92785 9.4986 3.92785V7.92785ZM11.9036 3.73006C11.9036 1.50768 10.101 -0.294947 7.8786 -0.294947V3.70505C7.88273 3.70505 7.88473 3.70544 7.88527 3.70555C7.88593 3.70568 7.88645 3.70584 7.88711 3.70612C7.8887 3.7068 7.89217 3.70869 7.89607 3.71259C7.89996 3.71649 7.90186 3.71995 7.90253 3.72155C7.90281 3.7222 7.90298 3.72273 7.90311 3.72339C7.90322 3.72392 7.90361 3.72593 7.90361 3.73006H11.9036ZM3.81182 2.10406C4.74947 1.16642 4.74947 -0.359115 3.81182 -1.29676L0.983396 1.53166C0.358947 0.907215 0.358947 -0.0999142 0.983396 -0.724363L3.81182 2.10406ZM3.81182 -1.29676C2.87417 -2.23441 1.34864 -2.23441 0.410995 -1.29676L3.23942 1.53166C2.61497 2.15611 1.60784 2.15611 0.983396 1.53166L3.81182 -1.29676ZM0.410999 1.53167L0.697201 1.81787L3.52562 -1.01057L3.23942 -1.29677L0.410999 1.53167ZM0.697192 1.81786L0.983392 2.10406L3.81183 -0.724358L3.52563 -1.01056L0.697192 1.81786ZM0.410995 -1.29676L-1.29541 0.409639L1.53302 3.23807L3.23942 1.53166L0.410995 -1.29676ZM-1.29541 3.81047L0.410995 5.51687L3.23942 2.68844L1.53302 0.98204L-1.29541 3.81047ZM3.81182 2.11604L2.79661 1.10084L-0.0318075 3.92927L0.983399 4.94447L3.81182 2.11604ZM1.3824 4.51505H7.8786V0.515054H1.3824V4.51505ZM7.0936 3.73006V5.52285H11.0936V3.73006H7.0936ZM11.9036 5.52285V3.73006H7.90361V5.52285H11.9036ZM7.8786 -0.294947H1.3824V3.70505H7.8786V-0.294947ZM2.79661 3.11927L3.81182 2.10407L0.983399 -0.724366L-0.0318075 0.290835L2.79661 3.11927Z" fill="black" mask="url(#path-2-inside-1_80_234)"/>
<mask id="path-4-inside-2_80_234" fill="white">
<path d="M9.90361 9.49621C9.90361 9.44221 9.89281 9.38821 9.87121 9.33961C9.84961 9.29101 9.8226 9.24781 9.7848 9.21001L8.0784 7.50361C7.9218 7.34701 7.6626 7.34701 7.506 7.50361C7.3494 7.66021 7.3494 7.91941 7.506 8.07601L8.5212 9.09121H2.025C1.3554 9.09121 0.810001 8.54581 0.810001 7.87621V6.08341C0.810001 5.86201 0.626401 5.67841 0.405001 5.67841C0.183606 5.67841 0 5.86201 0 6.08341V7.87621C0 8.99401 0.907207 9.90121 2.025 9.90121H8.5212L7.506 10.9164C7.3494 11.073 7.3494 11.3322 7.506 11.4888C7.587 11.5698 7.6896 11.6076 7.7922 11.6076C7.8948 11.6076 7.9974 11.5698 8.0784 11.4888L9.7848 9.78241C9.8226 9.74461 9.84961 9.70141 9.87121 9.65281C9.89281 9.60421 9.90361 9.55021 9.90361 9.49621Z"/>
</mask>
<path d="M9.90361 9.49621C9.90361 9.44221 9.89281 9.38821 9.87121 9.33961C9.84961 9.29101 9.8226 9.24781 9.7848 9.21001L8.0784 7.50361C7.9218 7.34701 7.6626 7.34701 7.506 7.50361C7.3494 7.66021 7.3494 7.91941 7.506 8.07601L8.5212 9.09121H2.025C1.3554 9.09121 0.810001 8.54581 0.810001 7.87621V6.08341C0.810001 5.86201 0.626401 5.67841 0.405001 5.67841C0.183606 5.67841 0 5.86201 0 6.08341V7.87621C0 8.99401 0.907207 9.90121 2.025 9.90121H8.5212L7.506 10.9164C7.3494 11.073 7.3494 11.3322 7.506 11.4888C7.587 11.5698 7.6896 11.6076 7.7922 11.6076C7.8948 11.6076 7.9974 11.5698 8.0784 11.4888L9.7848 9.78241C9.8226 9.74461 9.84961 9.70141 9.87121 9.65281C9.89281 9.60421 9.90361 9.55021 9.90361 9.49621Z" fill="#292D32"/>
<path d="M9.7848 9.21001L11.199 7.7958L11.199 7.7958L9.7848 9.21001ZM8.0784 7.50361L6.66419 8.91782L6.66419 8.91782L8.0784 7.50361ZM7.506 8.07601L8.92021 6.6618L8.92021 6.6618L7.506 8.07601ZM8.5212 9.09121V11.0912H13.3496L9.93542 7.677L8.5212 9.09121ZM8.5212 9.90121L9.93542 11.3154L13.3496 7.90121H8.5212V9.90121ZM7.506 10.9164L6.09179 9.5022L6.09179 9.5022L7.506 10.9164ZM7.506 11.4888L6.09179 12.903L6.09179 12.903L7.506 11.4888ZM8.0784 11.4888L6.66419 10.0746L6.66419 10.0746L8.0784 11.4888ZM9.7848 9.78241L11.199 11.1966L11.199 11.1966L9.7848 9.78241ZM11.9036 9.49621C11.9036 9.18118 11.8415 8.8483 11.6988 8.52733L8.04358 10.1519C7.94413 9.92813 7.90361 9.70324 7.90361 9.49621H11.9036ZM11.6988 8.52733C11.602 8.30954 11.4485 8.04525 11.199 7.7958L8.37059 10.6242C8.19674 10.4504 8.09718 10.2725 8.04358 10.1519L11.6988 8.52733ZM11.199 7.7958L9.49262 6.0894L6.66419 8.91782L8.37059 10.6242L11.199 7.7958ZM9.49262 6.0894C8.55497 5.15175 7.02944 5.15175 6.09179 6.0894L8.92021 8.91782C8.29577 9.54227 7.28864 9.54227 6.66419 8.91782L9.49262 6.0894ZM6.09179 6.0894C5.15414 7.02704 5.15414 8.55257 6.09179 9.49022L8.92021 6.6618C9.54466 7.28624 9.54466 8.29337 8.92021 8.91782L6.09179 6.0894ZM6.09179 9.49022L7.10699 10.5054L9.93542 7.677L8.92021 6.6618L6.09179 9.49022ZM8.5212 7.09121H2.025V11.0912H8.5212V7.09121ZM2.025 7.09121C2.45997 7.09121 2.81 7.44124 2.81 7.87621H-1.19C-1.19 9.65038 0.250833 11.0912 2.025 11.0912V7.09121ZM2.81 7.87621V6.08341H-1.19V7.87621H2.81ZM2.81 6.08341C2.81 4.75744 1.73097 3.67841 0.405001 3.67841V7.67841C-0.478168 7.67841 -1.19 6.96658 -1.19 6.08341H2.81ZM0.405001 3.67841C-0.920947 3.67841 -2 4.75742 -2 6.08341H2C2 6.96659 1.28816 7.67841 0.405001 7.67841V3.67841ZM-2 6.08341V7.87621H2V6.08341H-2ZM-2 7.87621C-2 10.0986 -0.197359 11.9012 2.025 11.9012V7.90121C2.02088 7.90121 2.01887 7.90083 2.01834 7.90072C2.01768 7.90058 2.01716 7.90042 2.0165 7.90014C2.0149 7.89947 2.01144 7.89757 2.00754 7.89367C2.00364 7.88977 2.00174 7.88631 2.00107 7.88472C2.00079 7.88406 2.00063 7.88353 2.0005 7.88288C2.00039 7.88234 2 7.88033 2 7.87621H-2ZM2.025 11.9012H8.5212V7.90121H2.025V11.9012ZM7.10699 8.487L6.09179 9.5022L8.92021 12.3306L9.93542 11.3154L7.10699 8.487ZM6.09179 9.5022C5.15414 10.4399 5.15414 11.9654 6.09179 12.903L8.92021 10.0746C9.54466 10.6991 9.54466 11.7062 8.92021 12.3306L6.09179 9.5022ZM6.09179 12.903C6.56762 13.3789 7.18778 13.6076 7.7922 13.6076V9.60762C8.19142 9.60762 8.60638 9.76077 8.92021 10.0746L6.09179 12.903ZM7.7922 13.6076C8.39662 13.6076 9.01678 13.3789 9.49262 12.903L6.66419 10.0746C6.97802 9.76077 7.39298 9.60762 7.7922 9.60762V13.6076ZM9.49262 12.903L11.199 11.1966L8.37059 8.3682L6.66419 10.0746L9.49262 12.903ZM11.199 11.1966C11.4485 10.9472 11.602 10.6829 11.6988 10.4651L8.04358 8.84054C8.09718 8.71994 8.19674 8.54205 8.37059 8.3682L11.199 11.1966ZM11.6988 10.4651C11.8415 10.1441 11.9036 9.81125 11.9036 9.49621H7.90361C7.90361 9.28918 7.94413 9.06429 8.04358 8.84054L11.6988 10.4651Z" fill="black" mask="url(#path-4-inside-2_80_234)"/>
<mask id="path-6-inside-3_80_234" fill="white">
<path fill-rule="evenodd" clip-rule="evenodd" d="M8.5212 9.90121H2.025C0.907207 9.90121 0 8.99401 0 7.87621V6.08341C0 5.86201 0.183606 5.67841 0.405001 5.67841C0.626401 5.67841 0.810001 5.86201 0.810001 6.08341V7.87621C0.810001 8.54581 1.3554 9.09121 2.025 9.09121H8.5212L7.506 8.07601C7.3494 7.91941 7.3494 7.66021 7.506 7.50361C7.6626 7.34701 7.9218 7.34701 8.0784 7.50361L9.7848 9.21001C9.8226 9.24781 9.84961 9.29101 9.87121 9.33961C9.89281 9.38821 9.90361 9.44221 9.90361 9.49621C9.90361 9.55021 9.89281 9.60421 9.87121 9.65281C9.84961 9.70141 9.8226 9.74461 9.7848 9.78241L8.0784 11.4888C7.9974 11.5698 7.8948 11.6076 7.7922 11.6076C7.6896 11.6076 7.587 11.5698 7.506 11.4888C7.3494 11.3322 7.3494 11.073 7.506 10.9164L8.5212 9.90121Z"/>
</mask>
<path fill-rule="evenodd" clip-rule="evenodd" d="M8.5212 9.90121H2.025C0.907207 9.90121 0 8.99401 0 7.87621V6.08341C0 5.86201 0.183606 5.67841 0.405001 5.67841C0.626401 5.67841 0.810001 5.86201 0.810001 6.08341V7.87621C0.810001 8.54581 1.3554 9.09121 2.025 9.09121H8.5212L7.506 8.07601C7.3494 7.91941 7.3494 7.66021 7.506 7.50361C7.6626 7.34701 7.9218 7.34701 8.0784 7.50361L9.7848 9.21001C9.8226 9.24781 9.84961 9.29101 9.87121 9.33961C9.89281 9.38821 9.90361 9.44221 9.90361 9.49621C9.90361 9.55021 9.89281 9.60421 9.87121 9.65281C9.84961 9.70141 9.8226 9.74461 9.7848 9.78241L8.0784 11.4888C7.9974 11.5698 7.8948 11.6076 7.7922 11.6076C7.6896 11.6076 7.587 11.5698 7.506 11.4888C7.3494 11.3322 7.3494 11.073 7.506 10.9164L8.5212 9.90121Z" fill="black"/>
<path d="M8.5212 9.90121L9.93542 11.3154L13.3496 7.90121H8.5212V9.90121ZM8.5212 9.09121V11.0912H13.3496L9.93542 7.677L8.5212 9.09121ZM7.506 8.07601L8.92021 6.6618L8.92021 6.66179L7.506 8.07601ZM8.0784 7.50361L6.66419 8.91782L6.66419 8.91782L8.0784 7.50361ZM9.7848 9.21001L11.199 7.7958L11.199 7.7958L9.7848 9.21001ZM9.87121 9.65281L11.6988 10.4651L11.6988 10.4651L9.87121 9.65281ZM7.506 10.9164L6.09179 9.5022L6.09179 9.5022L7.506 10.9164ZM-2 7.87621C-2 10.0986 -0.197359 11.9012 2.025 11.9012V7.90121C2.02088 7.90121 2.01887 7.90083 2.01834 7.90072C2.01768 7.90058 2.01716 7.90042 2.0165 7.90014C2.0149 7.89947 2.01144 7.89757 2.00754 7.89367C2.00364 7.88977 2.00174 7.88631 2.00107 7.88472C2.00079 7.88406 2.00063 7.88353 2.0005 7.88288C2.00039 7.88234 2 7.88033 2 7.87621H-2ZM0.405001 3.67841C-0.920947 3.67841 -2 4.75742 -2 6.08341H2C2 6.96659 1.28816 7.67841 0.405001 7.67841V3.67841ZM2.81 6.08341C2.81 4.75744 1.73097 3.67841 0.405001 3.67841V7.67841C-0.478168 7.67841 -1.19 6.96658 -1.19 6.08341H2.81ZM2.025 7.09121C2.45997 7.09121 2.81 7.44124 2.81 7.87621H-1.19C-1.19 9.65038 0.250833 11.0912 2.025 11.0912V7.09121ZM6.09179 6.08939C5.15414 7.02704 5.15414 8.55258 6.09179 9.49022L8.92021 6.66179C9.54466 7.28624 9.54466 8.29337 8.92021 8.91782L6.09179 6.08939ZM9.49262 6.0894C8.55497 5.15175 7.02944 5.15175 6.09179 6.08939L8.92021 8.91782C8.29577 9.54227 7.28864 9.54227 6.66419 8.91782L9.49262 6.0894ZM11.6988 8.52734C11.602 8.30953 11.4485 8.04524 11.199 7.7958L8.37059 10.6242C8.19675 10.4504 8.09718 10.2725 8.04358 10.1519L11.6988 8.52734ZM11.9036 9.49621C11.9036 9.18118 11.8415 8.8483 11.6988 8.52734L8.04358 10.1519C7.94413 9.92813 7.90361 9.70325 7.90361 9.49621H11.9036ZM11.6988 10.4651C11.8415 10.1441 11.9036 9.81125 11.9036 9.49621H7.90361C7.90361 9.28917 7.94414 9.06429 8.04358 8.84055L11.6988 10.4651ZM11.199 11.1966C11.4485 10.9472 11.602 10.6829 11.6988 10.4651L8.04358 8.84054C8.09718 8.71994 8.19674 8.54205 8.37059 8.3682L11.199 11.1966ZM7.7922 13.6076C8.39662 13.6076 9.01678 13.3789 9.49262 12.903L6.66419 10.0746C6.97802 9.76077 7.39298 9.60762 7.7922 9.60762V13.6076ZM6.09179 12.903C6.56762 13.3789 7.18779 13.6076 7.7922 13.6076V9.60762C8.19142 9.60762 8.60638 9.76077 8.92021 10.0746L6.09179 12.903ZM6.09179 9.5022C5.15414 10.4399 5.15414 11.9654 6.09179 12.903L8.92021 10.0746C9.54466 10.699 9.54466 11.7062 8.92021 12.3306L6.09179 9.5022ZM7.10699 8.487L6.09179 9.5022L8.92021 12.3306L9.93542 11.3154L7.10699 8.487ZM2.025 11.9012H8.5212V7.90121H2.025V11.9012ZM-2 6.08341V7.87621H2V6.08341H-2ZM2.81 7.87621V6.08341H-1.19V7.87621H2.81ZM8.5212 7.09121H2.025V11.0912H8.5212V7.09121ZM6.09179 9.49022L7.10699 10.5054L9.93542 7.677L8.92021 6.6618L6.09179 9.49022ZM11.199 7.7958L9.49262 6.0894L6.66419 8.91782L8.37059 10.6242L11.199 7.7958ZM9.49262 12.903L11.199 11.1966L8.37059 8.3682L6.66419 10.0746L9.49262 12.903Z" fill="black" mask="url(#path-6-inside-3_80_234)"/>
</svg>
